<svg xmlns="http://www.w3.org/2000/svg" width="40" height="38.167" viewBox="0 0 40 38.167">
  <g id="home" transform="translate(0 -11.141)">
    <path id="Path_7" data-name="Path 7" d="M39.631,28.362,20.807,11.529a.528.528,0,0,0-.107-.082,1.113,1.113,0,0,0-1.506-.025L.371,28.255a1.113,1.113,0,0,0,1.481,1.662l3.39-3.036v19.63a2.8,2.8,0,0,0,2.8,2.8h5.94A2.626,2.626,0,0,0,16.6,46.683V36.7a.4.4,0,0,1,.4-.4h6a.4.4,0,0,1,.4.4v9.98a2.626,2.626,0,0,0,2.624,2.624h5.94c1.563,0,2.8-1.538,2.8-3.5V26.988l3.39,3.036a1.119,1.119,0,0,0,1.571-.09A1.133,1.133,0,0,0,39.631,28.362Zm-7.092,5.487V45.787c0,.8-.395,1.283-.576,1.283h-5.94a.4.4,0,0,1-.4-.4V36.7A2.626,2.626,0,0,0,23,34.079H17A2.626,2.626,0,0,0,14.374,36.7v9.98a.4.4,0,0,1-.4.4H8.031a.578.578,0,0,1-.576-.576V24.89L19.944,13.734,32.539,25v8.852Z" transform="translate(0)" fill="#1da1f2"/>
  </g>
</svg>
